<?xml version="1.0" standalone="no"?>
<!DOCTYPE svg PUBLIC "-//W3C//DTD SVG 20010904//EN"
 "http://www.w3.org/TR/2001/REC-SVG-20010904/DTD/svg10.dtd">
<svg version="1.0" xmlns="http://www.w3.org/2000/svg"
 width="304.000000pt" height="212.000000pt" viewBox="0 0 304.000000 212.000000"
 preserveAspectRatio="xMidYMid meet">
<metadata>
Created by potrace 1.16, written by Peter Selinger 2001-2019
</metadata>
<g transform="translate(0.000000,212.000000) scale(0.100000,-0.100000)"
fill="#000000" stroke="none">
<path d="M1327 2051 c-99 -22 -206 -69 -284 -125 l-50 -36 -144 0 c-79 0 -162
-5 -183 -10 -74 -17 -122 -68 -140 -152 l-12 -53 -77 -3 -77 -3 0 -84 0 -83
-31 -7 c-35 -8 -119 -86 -119 -110 0 -9 -20 -35 -45 -57 -27 -24 -59 -69 -78
-107 -29 -60 -32 -74 -32 -161 0 -87 3 -101 32 -161 19 -38 51 -83 78 -107 25
-22 45 -48 45 -57 0 -24 84 -102 119 -110 l31 -7 0 -83 0 -84 77 -3 77 -3 12
-53 c18 -84 65 -135 140 -153 21 -5 98 -9 169 -8 72 0 137 0 146 0 9 -1 34
-15 55 -32 55 -44 160 -95 246 -120 112 -32 295 -37 422 -10 107 22 234 77
300 130 l39 31 146 0 c80 0 164 5 185 10 74 17 122 68 140 152 l12 53 77 3 77
3 0 83 c0 83 0 84 28 91 42 10 90 52 113 98 12 23 39 57 60 75 21 18 53 62 71
100 30 61 33 74 33 162 0 87 -3 101 -32 161 -19 38 -51 83 -78 107 -25 22 -45
48 -45 57 0 24 -84 102 -119 110 l-31 7 0 83 0 84 -77 3 -77 3 -12 53 c-18 84
-66 135 -140 152 -21 5 -104 10 -183 10 l-143 0 -47 34 c-129 94 -263 136
-456 142 -102 3 -149 0 -218 -15z m428 -61 c90 -29 157 -63 221 -111 l51 -39
162 0 c226 0 258 -17 282 -150 l12 -70 74 0 73 0 0 -79 0 -79 40 -7 c51 -9 93
-44 113 -92 8 -21 33 -53 56 -71 62 -50 93 -120 99 -219 4 -75 2 -87 -26 -146
-19 -42 -44 -76 -72 -98 -23 -19 -49 -51 -57 -72 -20 -48 -65 -85 -114 -93
l-39 -7 0 -78 0 -79 -73 0 -74 0 -12 -70 c-24 -133 -56 -150 -282 -150 l-162
0 -52 -40 c-118 -91 -277 -140 -455 -140 -179 0 -336 48 -456 141 l-51 39
-162 0 c-226 0 -258 17 -282 150 l-12 70 -74 0 -73 0 0 79 0 79 -40 7 c-51 9
-93 44 -113 92 -8 21 -32 52 -54 69 -21 17 -52 55 -68 85 -27 49 -30 62 -30
149 0 87 3 100 30 149 16 30 47 68 68 85 22 17 46 48 54 69 20 48 62 83 113
92 l40 7 0 78 0 79 72 3 72 3 17 73 c29 129 55 142 280 142 l162 0 51 39 c81
62 184 107 297 131 24 5 107 8 184 6 111 -3 155 -8 210 -26z"/>
<path d="M1360 1986 c-117 -25 -218 -72 -300 -141 l-44 -36 -120 1 c-234 3
-235 3 -265 -27 -21 -22 -30 -45 -41 -105 l-13 -78 -68 0 -69 0 -2 -62 c0 -35
-1 -70 0 -80 1 -12 -10 -18 -46 -23 -59 -8 -99 -38 -116 -87 -7 -23 -27 -48
-52 -66 -21 -16 -52 -53 -69 -83 -27 -48 -30 -63 -30 -139 0 -76 3 -91 30
-139 17 -30 48 -67 69 -83 25 -18 45 -43 52 -66 17 -49 57 -79 115 -87 l48 -7
-1 -76 -1 -77 70 -3 70 -3 13 -77 c11 -60 20 -83 41 -104 30 -31 20 -30 255
-28 l131 1 49 -41 c59 -49 166 -103 254 -127 90 -25 310 -25 400 0 89 24 174
66 246 120 l61 46 114 0 c236 -1 236 -1 264 24 20 17 30 41 43 102 l17 80 68
3 67 3 2 52 c1 29 1 64 0 78 -2 24 2 27 46 33 58 8 99 39 116 88 7 23 27 48
52 66 21 16 53 53 69 83 27 48 30 63 30 139 0 73 -4 92 -28 138 -16 31 -45 65
-69 82 -27 20 -46 44 -54 68 -17 49 -58 80 -116 88 -44 6 -48 9 -46 33 1 14 1
49 0 78 l-2 52 -67 3 -68 3 -17 80 c-13 61 -23 85 -43 102 -29 25 -31 26 -241
24 l-141 -2 -49 41 c-59 49 -167 104 -249 126 -82 22 -282 27 -365 10z m318
-22 c92 -18 207 -70 282 -127 l55 -42 180 -2 c177 -2 180 -2 201 -26 12 -14
26 -53 33 -88 20 -104 14 -98 89 -101 l67 -3 3 -76 c3 -84 7 -89 75 -89 36 0
87 -49 87 -83 0 -18 10 -32 34 -46 147 -91 154 -326 13 -431 -33 -24 -47 -42
-47 -58 0 -39 -49 -79 -108 -87 l-51 -7 -3 -76 -3 -77 -67 -3 c-75 -3 -69 3
-89 -101 -7 -36 -21 -74 -33 -87 -20 -23 -26 -23 -200 -25 l-180 -3 -60 -45
c-135 -102 -294 -148 -476 -138 -58 3 -132 13 -165 22 -80 22 -188 77 -246
126 l-48 40 -175 -3 c-214 -2 -216 -1 -236 116 -7 41 -15 79 -19 84 -4 6 -36
12 -71 14 l-65 3 -3 77 -3 77 -52 7 c-59 8 -107 47 -107 86 0 16 -14 34 -47
58 -69 51 -98 114 -98 210 0 96 29 159 98 210 33 24 47 42 47 58 0 41 49 79
111 87 l54 7 0 76 0 77 67 3 c75 3 69 -3 89 101 7 36 21 74 33 87 21 23 25 24
201 26 l180 1 46 38 c79 66 207 121 329 142 60 10 207 6 278 -9z"/>
</g>
</svg>
