<?xml version="1.0" standalone="no"?>
<svg xmlns:xlink="http://www.w3.org/1999/xlink" id="wave" style="transform:rotate(180deg); transition: 0.3s" viewBox="0 0 1440 290" version="1.1" xmlns="http://www.w3.org/2000/svg"><defs><linearGradient id="sw-gradient-0" x1="0" x2="0" y1="1" y2="0"><stop stop-color="rgba(124, 203, 124, 0.8)" offset="0%"/><stop stop-color="rgba(227, 213, 184, 1)" offset="100%"/></linearGradient></defs><path style="transform:translate(0, 0px); opacity:1" fill="url(#sw-gradient-0)" d="M0,87L26.7,87C53.3,87,107,87,160,82.2C213.3,77,267,68,320,58C373.3,48,427,39,480,33.8C533.3,29,587,29,640,53.2C693.3,77,747,126,800,120.8C853.3,116,907,58,960,29C1013.3,0,1067,0,1120,29C1173.3,58,1227,116,1280,120.8C1333.3,126,1387,77,1440,82.2C1493.3,87,1547,145,1600,145C1653.3,145,1707,87,1760,53.2C1813.3,19,1867,10,1920,9.7C1973.3,10,2027,19,2080,53.2C2133.3,87,2187,145,2240,183.7C2293.3,222,2347,242,2400,217.5C2453.3,193,2507,126,2560,101.5C2613.3,77,2667,97,2720,101.5C2773.3,106,2827,97,2880,120.8C2933.3,145,2987,203,3040,227.2C3093.3,251,3147,242,3200,241.7C3253.3,242,3307,251,3360,212.7C3413.3,174,3467,87,3520,53.2C3573.3,19,3627,39,3680,82.2C3733.3,126,3787,193,3813,227.2L3840,261L3840,290L3813.3,290C3786.7,290,3733,290,3680,290C3626.7,290,3573,290,3520,290C3466.7,290,3413,290,3360,290C3306.7,290,3253,290,3200,290C3146.7,290,3093,290,3040,290C2986.7,290,2933,290,2880,290C2826.7,290,2773,290,2720,290C2666.7,290,2613,290,2560,290C2506.7,290,2453,290,2400,290C2346.7,290,2293,290,2240,290C2186.7,290,2133,290,2080,290C2026.7,290,1973,290,1920,290C1866.7,290,1813,290,1760,290C1706.7,290,1653,290,1600,290C1546.7,290,1493,290,1440,290C1386.7,290,1333,290,1280,290C1226.7,290,1173,290,1120,290C1066.7,290,1013,290,960,290C906.7,290,853,290,800,290C746.7,290,693,290,640,290C586.7,290,533,290,480,290C426.7,290,373,290,320,290C266.7,290,213,290,160,290C106.7,290,53,290,27,290L0,290Z"/></svg>